<mxfile host="app.diagrams.net" modified="2024-05-28T19:51:28.931Z" agent="Mozilla/5.0 (X11; CrOS x86_64 14541.0.0) AppleWebKit/537.36 (KHTML, like Gecko) Chrome/124.0.0.0 Safari/537.36" etag="rdsVC_8cC5oyDjss3yGN" version="24.4.9" type="github">
  <diagram name="Page-1" id="w5A8AIrOjMRhdrz0gC7j">
    <mxGraphModel dx="589" dy="292" grid="1" gridSize="10" guides="1" tooltips="1" connect="1" arrows="1" fold="1" page="1" pageScale="1" pageWidth="2000" pageHeight="2000" math="0" shadow="0">
      <root>
        <mxCell id="0" />
        <mxCell id="1" parent="0" />
        <mxCell id="2grYgxtL75VepUmVmND1-1" value="Hub" style="swimlane;whiteSpace=wrap;html=1;startSize=20;fillColor=#d5e8d4;strokeColor=#82b366;" vertex="1" parent="1">
          <mxGeometry x="520" y="420" width="160" height="180" as="geometry" />
        </mxCell>
        <mxCell id="2grYgxtL75VepUmVmND1-4" value="/city/street" style="rounded=0;whiteSpace=wrap;html=1;" vertex="1" parent="2grYgxtL75VepUmVmND1-1">
          <mxGeometry y="20" width="160" height="20" as="geometry" />
        </mxCell>
        <mxCell id="2grYgxtL75VepUmVmND1-3" value="Entrance hub for the Marble City&lt;div&gt;Tiled plaza with some plants&lt;/div&gt;&lt;div&gt;VIRG0.0 landing pad/staircase/etc&lt;/div&gt;" style="rounded=0;whiteSpace=wrap;html=1;" vertex="1" parent="2grYgxtL75VepUmVmND1-1">
          <mxGeometry y="40" width="160" height="140" as="geometry" />
        </mxCell>
        <mxCell id="2grYgxtL75VepUmVmND1-12" value="Hub" style="swimlane;whiteSpace=wrap;html=1;startSize=20;fillColor=#d5e8d4;strokeColor=#82b366;" vertex="1" parent="1">
          <mxGeometry x="720" y="420" width="160" height="180" as="geometry" />
        </mxCell>
        <mxCell id="2grYgxtL75VepUmVmND1-13" value="/city/street" style="rounded=0;whiteSpace=wrap;html=1;" vertex="1" parent="2grYgxtL75VepUmVmND1-12">
          <mxGeometry y="20" width="160" height="20" as="geometry" />
        </mxCell>
        <mxCell id="2grYgxtL75VepUmVmND1-14" value="Entrance hub for the Marble City&lt;div&gt;Tiled plaza with some plants&lt;/div&gt;&lt;div&gt;VIRG0.0 landing pad/staircase/etc&lt;/div&gt;" style="rounded=0;whiteSpace=wrap;html=1;" vertex="1" parent="2grYgxtL75VepUmVmND1-12">
          <mxGeometry y="40" width="160" height="140" as="geometry" />
        </mxCell>
      </root>
    </mxGraphModel>
  </diagram>
</mxfile>
